<svg xmlns="http://www.w3.org/2000/svg" viewBox="0 0 64 64" fill="none">
  <!-- Background circle -->
  <circle cx="32" cy="32" r="32" fill="#3D405B"/>

  <!-- Heart shape -->
  <path d="M32 48 C32 48 14 36 14 24 C14 18 18.5 14 24 14 C27.5 14 30.5 15.8 32 18.5 C33.5 15.8 36.5 14 40 14 C45.5 14 50 18 50 24 C50 36 32 48 32 48Z" fill="#AD6A6C"/>

  <!-- Paw pad - main central pad -->
  <ellipse cx="32" cy="33" rx="5.5" ry="4.5" fill="#fff" opacity="0.95"/>

  <!-- Paw pad - top left toe -->
  <ellipse cx="24.5" cy="26" rx="3" ry="2.5" fill="#fff" opacity="0.95"/>

  <!-- Paw pad - top center-left toe -->
  <ellipse cx="29" cy="23.5" rx="3" ry="2.5" fill="#fff" opacity="0.95"/>

  <!-- Paw pad - top center-right toe -->
  <ellipse cx="35" cy="23.5" rx="3" ry="2.5" fill="#fff" opacity="0.95"/>

  <!-- Paw pad - top right toe -->
  <ellipse cx="39.5" cy="26" rx="3" ry="2.5" fill="#fff" opacity="0.95"/>
</svg>
