<svg xmlns="http://www.w3.org/2000/svg" viewBox="0 0 16 16" fill="none">
  <circle cx="8" cy="8" r="8" fill="#3D405B"/>
  <path d="M8 13 C8 13 3 9.5 3 6.5 C3 4.8 4.2 3.5 5.8 3.5 C6.8 3.5 7.6 4 8 4.8 C8.4 4 9.2 3.5 10.2 3.5 C11.8 3.5 13 4.8 13 6.5 C13 9.5 8 13 8 13Z" fill="#AD6A6C"/>
  <ellipse cx="8" cy="8.5" rx="1.6" ry="1.3" fill="#fff" opacity="0.95"/>
  <ellipse cx="5.8" cy="6.5" rx="1" ry="0.9" fill="#fff" opacity="0.95"/>
  <ellipse cx="7.3" cy="5.7" rx="1" ry="0.9" fill="#fff" opacity="0.95"/>
  <ellipse cx="8.7" cy="5.7" rx="1" ry="0.9" fill="#fff" opacity="0.95"/>
  <ellipse cx="10.2" cy="6.5" rx="1" ry="0.9" fill="#fff" opacity="0.95"/>
</svg>
